<?xml version="1.0" standalone="no"?>
<!DOCTYPE svg PUBLIC "-//W3C//DTD SVG 20010904//EN"
 "http://www.w3.org/TR/2001/REC-SVG-20010904/DTD/svg10.dtd">
<svg version="1.0" xmlns="http://www.w3.org/2000/svg"
 width="382.000000pt" height="201.000000pt" viewBox="0 0 382.000000 201.000000"
 preserveAspectRatio="xMidYMid meet">
<metadata>
Created by potrace 1.16, written by Peter Selinger 2001-2019
</metadata>
<g transform="translate(0.000000,201.000000) scale(0.100000,-0.100000)"
fill="#000000" stroke="none">
<path d="M832 1749 c-40 -5 -87 -13 -105 -18 -28 -9 -25 -9 23 -6 30 1 63 6
73 10 9 4 29 5 44 2 15 -3 38 -1 51 4 14 5 70 5 140 -1 143 -12 174 -18 166
-32 -4 -6 -2 -8 3 -5 6 4 25 4 43 1 17 -4 27 -10 21 -13 -5 -4 7 -7 27 -7 41
0 145 -42 137 -54 -3 -5 3 -6 14 -3 10 3 22 0 25 -6 4 -6 15 -11 24 -11 18 0
74 -39 57 -40 -6 0 -9 -25 -9 -59 1 -32 -3 -81 -8 -107 -5 -27 -13 -71 -18
-99 -18 -101 -34 -148 -52 -153 -10 -2 -18 -9 -18 -14 0 -5 -4 -7 -9 -3 -5 3
-12 1 -16 -4 -3 -6 -13 -7 -22 -4 -11 4 -14 3 -9 -5 5 -8 2 -10 -8 -6 -9 4
-16 1 -16 -6 0 -10 -4 -9 -16 0 -12 11 -15 11 -12 0 2 -8 -11 -17 -32 -22 -19
-5 -42 -15 -50 -22 -8 -7 -27 -12 -42 -11 -20 1 -25 -2 -20 -13 3 -10 1 -13
-6 -8 -7 4 -20 2 -29 -4 -16 -10 -16 -11 2 -5 15 5 17 3 8 -6 -15 -15 -54 -18
-71 -6 -9 7 -11 6 -7 -5 9 -24 -78 -41 -162 -33 -37 4 -72 10 -78 13 -5 4 -14
7 -20 8 -5 0 -16 2 -23 2 -7 1 -10 6 -7 12 4 6 -1 7 -11 3 -11 -4 -15 -3 -11
4 5 7 -1 9 -15 5 -16 -4 -19 -2 -13 9 5 8 5 11 0 7 -4 -4 -19 -1 -34 6 -31 16
-93 83 -83 89 4 2 2 2 -5 1 -7 -2 -15 1 -18 5 -3 5 15 16 40 24 25 9 46 14 46
11 1 -2 2 -8 3 -13 1 -11 15 -26 24 -27 20 -2 41 -17 36 -25 -3 -5 0 -9 6 -9
7 0 10 -6 7 -13 -3 -8 1 -14 8 -14 8 0 11 7 7 16 -5 13 -3 14 10 3 9 -7 20
-12 24 -11 23 4 45 -2 39 -10 -3 -6 3 -10 12 -9 10 0 38 -3 62 -7 44 -7 147
10 157 26 2 5 11 6 19 2 8 -3 15 0 15 6 0 6 5 11 11 11 5 0 8 -4 5 -9 -3 -5
24 7 59 26 36 19 70 31 76 27 8 -5 9 -3 4 6 -6 10 -4 12 9 7 11 -5 15 -3 10 5
-5 7 0 9 14 6 12 -4 20 -2 16 3 -3 5 1 9 8 9 8 0 29 12 47 28 26 22 34 37 38
74 3 29 10 45 16 41 6 -3 7 -1 3 5 -4 7 -4 17 0 23 13 21 26 191 14 184 -5 -3
-10 -2 -12 2 -1 5 -20 16 -41 26 -21 9 -36 21 -33 25 3 5 -7 9 -22 10 -15 0
-38 3 -52 6 -14 3 -40 9 -57 12 -18 3 -33 9 -33 13 0 3 -10 7 -22 7 -13 1 -68
7 -123 14 -135 16 -341 -2 -438 -39 -15 -6 -35 -8 -44 -5 -16 5 -16 4 -3 -6
13 -10 11 -11 -7 -7 -13 3 -24 -1 -27 -9 -3 -7 -20 -16 -38 -19 -67 -13 -76
-31 -64 -125 2 -14 4 -35 5 -46 0 -13 10 -24 22 -27 12 -3 18 -10 14 -16 -4
-7 0 -8 10 -4 12 4 13 8 5 13 -8 5 -7 9 5 14 22 8 27 8 21 -3 -3 -5 1 -11 9
-14 9 -4 12 -1 8 8 -6 17 35 36 79 37 16 1 25 5 21 11 -3 6 -2 7 4 4 5 -3 22
0 37 8 14 8 24 10 21 5 -9 -14 9 -12 23 2 9 9 12 9 12 1 0 -12 -38 -29 -54
-25 -4 2 -19 -4 -32 -13 -28 -18 -38 -19 -28 -3 4 7 3 8 -5 4 -6 -4 -9 -12 -6
-17 4 -5 1 -9 -4 -9 -19 0 -26 -2 -45 -15 -10 -8 -25 -11 -32 -8 -8 3 -14 1
-14 -4 0 -13 -68 -36 -81 -27 -7 4 -9 3 -6 -3 4 -6 -6 -10 -23 -9 -17 1 -31 3
-31 6 -1 3 -3 16 -5 30 -1 14 -9 63 -17 110 -16 102 -10 136 24 132 18 -1 21
0 9 7 -11 8 -9 12 14 21 26 9 57 17 79 19 5 1 6 5 3 10 -10 15 140 67 179 62
15 -2 17 0 9 9 -9 9 -22 9 -55 -1 -75 -21 -256 -99 -273 -118 -14 -16 -15 -30
-6 -117 15 -143 28 -194 50 -194 26 0 155 44 235 80 187 85 288 106 410 85 28
-5 28 -4 -5 9 -94 36 -201 26 -434 -40 -118 -34 -128 -35 -132 -11 0 7 -4 35
-8 64 l-7 52 38 20 c77 39 230 83 341 97 92 12 133 13 215 4 112 -13 248 -47
345 -87 60 -25 62 -27 62 -62 0 -59 -40 -234 -59 -261 -10 -13 -48 -36 -87
-52 -38 -15 -78 -32 -89 -38 -141 -67 -270 -87 -348 -55 -76 31 -104 47 -137
76 -29 27 -35 28 -69 19 -20 -5 -45 -15 -55 -23 -16 -12 -14 -16 31 -58 97
-91 210 -139 327 -139 81 0 155 21 271 75 44 21 118 50 165 65 l85 28 28 89
c29 88 65 337 54 365 -7 20 -138 81 -252 117 -98 32 -289 62 -378 60 -29 -1
-85 -5 -125 -10z"/>
<path d="M882 1410 c-51 -11 -121 -37 -212 -78 -36 -16 -109 -44 -162 -62 -54
-17 -98 -36 -98 -41 0 -23 85 -217 121 -277 89 -147 216 -279 359 -375 l82
-55 47 28 c100 62 240 190 313 288 87 116 161 250 132 238 -11 -5 -48 -18 -84
-31 -36 -13 -101 -39 -145 -58 -106 -47 -213 -71 -289 -65 l-61 5 40 -13 c70
-22 216 -13 328 22 9 3 17 1 17 -4 0 -18 -162 -181 -230 -232 l-70 -52 -84 66
c-46 36 -107 91 -136 123 -91 101 -200 276 -200 320 0 36 328 163 420 163 70
0 169 -39 244 -96 29 -22 31 -22 70 -7 54 21 53 19 25 49 -99 107 -293 172
-427 144z"/>
<path d="M1690 1140 l0 -270 70 0 70 0 0 65 0 65 135 0 c151 0 138 8 149 -85
3 -22 5 -41 6 -42 0 -2 29 -3 65 -3 l65 0 0 70 c0 76 -13 117 -42 126 -17 5
-16 8 12 34 30 28 30 29 30 134 0 103 -1 107 -29 138 l-29 33 -251 3 -251 3 0
-271z m421 109 c13 -26 5 -89 -13 -101 -7 -4 -70 -8 -140 -8 l-128 0 0 65 0
65 135 0 c127 0 135 -1 146 -21z"/>
<path d="M2290 1141 l0 -271 70 0 70 0 0 65 0 65 143 1 c231 0 252 16 252 192
0 136 -6 159 -48 189 -31 22 -40 23 -259 26 l-228 4 0 -271z m394 113 c10 -26
7 -102 -5 -109 -6 -4 -64 -10 -130 -12 l-119 -6 0 72 0 71 124 0 c104 0 125
-3 130 -16z"/>
<path d="M3014 1373 c-24 -55 -215 -487 -221 -495 -2 -5 32 -8 75 -8 l80 0 19
45 18 45 148 0 147 0 22 -45 22 -45 73 0 c52 0 73 4 72 13 0 6 -51 127 -112
267 l-112 255 -108 3 -108 3 -15 -38z m173 -178 c53 -127 58 -115 -51 -115
-53 0 -96 2 -96 4 0 2 14 36 31 77 17 41 35 84 40 97 16 41 40 21 76 -63z"/>
<path d="M916 1249 c-20 -16 -26 -29 -26 -58 0 -104 155 -109 163 -5 2 24 -2
28 -23 29 -21 0 -25 4 -23 28 2 24 -1 27 -31 27 -19 0 -45 -9 -60 -21z"/>
<path d="M0 155 l0 -155 1910 0 1910 0 0 155 0 155 -1910 0 -1910 0 0 -155z"/>
</g>
</svg>
